<svg xmlns="http://www.w3.org/2000/svg" version="1.1" xmlns:xlink="http://www.w3.org/1999/xlink" xmlns:svgjs="http://svgjs.dev/svgjs" width="1000" height="1000" viewBox="0 0 1000 1000"><rect width="1000" height="1000" fill="#000000"></rect><g transform="matrix(0.7,0,0,0.7,150.0000000000001,106.25)"><svg viewBox="0 0 320 360" data-background-color="#90adbb" preserveAspectRatio="xMidYMid meet" height="1125" width="1000" xmlns="http://www.w3.org/2000/svg" xmlns:xlink="http://www.w3.org/1999/xlink"><g id="tight-bounds" transform="matrix(1,0,0,1,0,0)"><svg viewBox="0 0 320 360" height="360" width="320"><g><svg></svg></g><g><svg viewBox="0 0 320 360" height="360" width="320"><g><path xmlns="http://www.w3.org/2000/svg" d="M20.961 227.22l3.726 4.658-1.863-6.056c-0.466-2.795-3.726 0.466-1.863 1.398M25.153 224.425c1.397 2.329 2.795 4.658 2.795 6.987 0 3.261 2.795 4.658 5.123 5.589-3.261-3.726-5.124-13.974-7.918-12.576M204.017 26.929c7.918 0 15.371-0.932 23.756 0.931 20.495 5.124 37.729 15.371 49.374 29.811l32.606 52.169c1.397 13.042 4.192 27.482 3.726 43.319 3.261 0 2.795-4.658 6.521-5.59-3.726 9.316-5.59 20.961-6.521 34.469-2.329-7.453 0-18.632 0.466-24.687-3.261 5.124-5.124 1.397-5.124-0.932 0.466-3.726-1.397-3.261-2.795-4.658-5.124-4.658-8.384-9.782-12.11-17.7 2.329-6.055 2.795-14.905-4.658-19.563-2.329-1.397-5.124-3.726-6.521-7.453-1.863-5.124-5.124-11.179-4.193-19.097 0.466-2.329-6.987 5.124-11.179 1.863-18.166-12.576-36.332-27.016-58.224-39.127-11.645 0-20.029-4.192-24.221-9.316-3.726-4.658-0.932-10.713 4.658-11.179 3.261 0 6.987-0.932 9.782 0.932 0.466-1.863 2.329-4.192 4.657-4.192M157.904 16.215l0.932 0.466c4.658 0.932 6.987 7.453 12.11 5.124 0 3.261 0.466 6.521-0.466 8.85-1.397 3.726-5.59 3.726-8.85 3.726-31.208-1.863-49.374 11.179-68.471 22.358-5.124 3.261-10.713 5.59-14.906 9.782-20.029 18.632-41.921 35.866-47.045 70.335l-4.192 38.195c-0.466 4.192-5.124 8.384-4.192 13.508l3.26 22.824c-3.261-3.261-5.124 0.932-4.192 2.795 0.466 1.397 2.329 6.055 5.124 1.863 3.726 6.987 7.453 20.495 12.576 26.55 15.837 18.632 36.332 35.4 53.101 52.169 4.192-0.932 7.453-0.932 8.384-3.727 1.397 2.795-1.397 5.59-3.726 6.056 7.453 4.658 15.837 8.85 27.016 9.781 14.44 0.932 27.948 3.261 40.524 6.522 6.521-1.863 13.042-2.795 20.029-3.261 2.329 0 3.726-3.726 6.521-4.658l0.466-4.658c2.795 4.192 2.329-1.397 0.466-4.192 3.261 2.795 4.192 5.124 5.589 6.987 0-1.397 3.726-6.521 3.727-0.466l0.931-6.055c1.397-0.932 1.863 5.124 3.261 0.931 1.397-4.192 4.192-0.932 6.987-2.329-0.932 1.863-0.466 5.59 2.794 3.261l3.727-3.261c2.329 5.59 6.055 3.261 7.918 2.329 20.495-13.042 40.99-28.413 60.553-43.784l-0.466 6.055 2.329-7.453c2.329 2.329 4.192 0.466 5.124-0.931 2.795-4.658 6.521-9.316 12.577-13.508-7.453 20.029-16.303 35.866-27.482 48.908l-4.658 5.59c0 3.261-0.932 7.453-4.658 7.918-1.863 0.466-5.59-0.932-8.384 1.863-1.397 1.863 3.261 5.59-0.466 2.795-3.261-2.329-6.521 0-10.248 0.932-2.795 0.932 1.863 3.726 2.795 5.589 0.932 1.863 1.863 3.726 1.398 6.056l-5.124-5.59c-6.055 3.261-9.782 9.316-14.906 13.974-2.329 1.863-1.397 5.124-1.397 7.918-3.261 0-6.987-0.932-8.85 0.932-1.397 1.863-0.932 4.658-0.932 7.453-4.658-0.466-5.124-7.453-9.315-6.056-4.192 0.932-8.85 1.397-12.577 3.727 2.795 5.59-4.658 2.329-3.726 3.26-6.987-4.192-13.042-7.453-20.495-4.658-15.837-5.124-35.4-2.795-49.84-0.931 0-2.329 0.466-4.658-0.466-5.124-0.932 2.329-3.726 1.397-3.26 1.397-8.85-6.055-17.7-9.782-27.016-14.905-8.384 0.932-16.303-3.261-18.632-5.59-6.521-6.055-13.974-2.795-20.029-4.192-13.042-3.261-17.7-16.769-19.098-26.084-0.932-4.658-4.658-6.521-6.055-6.056-6.055-19.563-15.371-37.263-22.824-55.429-1.863-4.658-1.397-9.316-1.397-14.44 2.329 0.932 4.658 0.466 4.192-2.794-2.329-15.371-7.918-27.016-13.974-38.195 3.261-15.837 3.726-34.469 11.179-48.443 6.521-12.576 18.632-19.098 27.016-29.811 2.795-3.726 2.795-8.85 5.59-12.11 9.316-9.316 18.632-19.098 28.879-27.482 4.658-3.726 10.247 0 17.234-1.397 2.329-8.384 11.645-15.837 20.495-13.508 3.726 0.932 11.179-8.85 13.508-9.782 3.726-1.397 1.863 3.726 1.863 6.987 8.85-6.987 20.961-10.713 32.14-14.906" fill="#ffffff" fill-rule="nonzero" stroke="none" stroke-width="1" stroke-linecap="butt" stroke-linejoin="miter" stroke-miterlimit="10" stroke-dasharray="" stroke-dashoffset="0" font-family="none" font-weight="none" font-size="none" text-anchor="none" style="mix-blend-mode: normal" data-fill-palette-color="tertiary"></path></g><g transform="matrix(1,0,0,1,64,96.05422857666221)"><svg viewBox="0 0 192 167.89154284667558" height="167.89154284667558" width="192"><g><svg viewBox="0 0 192 167.89154284667558" height="167.89154284667558" width="192"><g><svg viewBox="0 0 192 167.89154284667558" height="167.89154284667558" width="192"><g transform="matrix(1,0,0,1,0,91.79478195792709)"><svg viewBox="0 0 192 76.09676088874849" height="76.09676088874849" width="192"><g id="textblocktransform"><svg viewBox="0 0 192 76.09676088874849" height="76.09676088874849" width="192" id="textblock"><g><svg viewBox="0 0 192 52.49378624689312" height="52.49378624689312" width="192"><g transform="matrix(1,0,0,1,0,0)"><svg width="192" viewBox="-3.5199999809265137 -55.31999969482422 235.73001098632812 64.44999694824219" height="52.49378624689312" data-palette-color="#f6f6f6"><path d="M40.09-1.81L40.09-1.81Q40.09-1.32 40.04-1.07L40.04-1.07Q39.79-0.98 39.65-0.81 39.5-0.63 39.16-0.68L39.16-0.68Q39.06 0.05 38.67 0.54 38.28 1.03 37.87 1.44 37.45 1.86 37.06 2.32 36.67 2.78 36.57 3.52L36.57 3.52Q35.84 3.91 35.13 4.57 34.42 5.22 33.89 5.47L33.89 5.47Q33.5 5.66 33.06 5.79 32.62 5.91 32.18 6.1L32.18 6.1Q30.76 6.74 29.27 7.42 27.78 8.11 26.17 8.11L26.17 8.11 25.83 8.11Q25.63 8.3 25.34 8.37 25.05 8.45 24.76 8.5 24.46 8.54 24.17 8.64 23.88 8.74 23.73 8.94L23.73 8.94Q23.19 8.74 22.56 8.74L22.56 8.74 22.22 8.74Q21.39 8.94 20.65 9.03 19.92 9.13 19.09 9.13L19.09 9.13Q17.63 9.13 16.16 8.94 14.7 8.74 13.23 8.59L13.23 8.59Q12.3 7.86 11.72 6.76 11.13 5.66 11.13 4.44L11.13 4.44Q11.13 3.52 11.52 2.71 11.91 1.9 12.55 1.27L12.55 1.27 12.7 1.27Q13.13 1.27 13.6 1.07 14.06 0.88 14.5 0.88L14.5 0.88Q14.99 0.88 15.31 1.27 15.63 1.66 15.8 2.2 15.97 2.73 16.02 3.3 16.06 3.86 16.06 4.2L16.06 4.2Q16.6 4.44 17.21 4.49 17.82 4.54 18.46 4.54L18.46 4.54Q19.09 4.54 19.87 4.47 20.65 4.39 21.46 4.22 22.27 4.05 23.02 3.81 23.78 3.56 24.32 3.17L24.32 3.17Q27 2.93 29.05 1.95 31.1 0.98 33.4-0.34L33.4-0.34Q33.5-0.88 33.81-1.2 34.13-1.51 34.13-2.15L34.13-2.15Q34.13-2.25 34.11-2.37 34.08-2.49 34.08-2.59L34.08-2.59Q33.11-3.81 32.06-4.74 31.01-5.66 29.35-5.96L29.35-5.96Q29.15-6.4 28.71-6.62 28.27-6.84 27.78-7.03 27.29-7.23 26.86-7.45 26.42-7.67 26.22-8.2L26.22-8.2Q24.9-8.45 23.51-8.81 22.12-9.18 21.14-10.16L21.14-10.16Q20.36-10.21 19.65-10.47 18.95-10.74 18.26-11.01 17.58-11.28 16.85-11.5 16.11-11.72 15.33-11.72L15.33-11.72Q15.14-12.06 14.79-12.26 14.45-12.45 14.04-12.6 13.62-12.74 13.26-12.92 12.89-13.09 12.7-13.43L12.7-13.43Q12.5-13.38 12.4-13.23 12.3-13.09 12.06-13.09L12.06-13.09 11.87-13.09Q11.77-13.38 11.47-13.5 11.18-13.62 11.13-14.01L11.13-14.01Q10.25-14.06 9.55-14.36 8.84-14.65 8.23-15.01 7.62-15.38 6.98-15.72 6.35-16.06 5.57-16.26L5.57-16.26Q5.08-16.65 4.66-17.11 4.25-17.58 3.61-17.58L3.61-17.58Q3.47-17.58 3.08-17.48L3.08-17.48Q2.98-18.36 2.34-18.73 1.71-19.09 0.98-19.38L0.98-19.38Q0.49-20.65-0.34-21.63-1.17-22.61-2.15-23.44L-2.15-23.44Q-2.05-23.73-2.05-23.88L-2.05-23.88Q-2.05-24.37-2.29-24.73-2.54-25.1-2.83-25.34L-2.83-25.34Q-3.52-27.54-3.52-29.64L-3.52-29.64Q-3.52-32.57-2.22-35.08-0.93-37.6 1.86-38.87L1.86-38.87Q1.9-39.26 2.12-39.55 2.34-39.84 2.39-40.23L2.39-40.23Q2.83-40.23 3.08-40.43 3.32-40.63 3.54-40.84 3.76-41.06 4-41.26 4.25-41.46 4.64-41.5L4.64-41.5Q6.49-43.12 8.59-44.12 10.69-45.12 12.89-46.19L12.89-46.19Q13.33-46.39 13.62-46.92L13.62-46.92 13.92-46.92Q14.4-46.92 14.67-47.14 14.94-47.36 15.48-47.27L15.48-47.27Q15.67-47.56 15.99-47.66 16.31-47.75 16.63-47.83 16.94-47.9 17.24-48.05 17.53-48.19 17.63-48.49L17.63-48.49 17.97-48.49Q18.8-48.49 19.58-48.75 20.36-49.02 21.14-49.37L21.14-49.37 21.48-49.37Q22.46-49.37 23.32-49.73 24.17-50.1 25.15-50.24L25.15-50.24Q25.54-50.34 25.93-50.29 26.32-50.24 26.71-50.24L26.71-50.24Q26.95-50.24 27.29-50.29 27.64-50.34 27.78-50.59L27.78-50.59 27.88-50.59Q28.17-50.59 28.22-50.39 28.27-50.2 28.52-50.2L28.52-50.2Q28.86-50.2 29.2-50.29 29.54-50.39 29.88-50.39L29.88-50.39Q31.35-50.39 32.79-50.1 34.23-49.8 35.64-49.56L35.64-49.56Q35.74-48.97 36.16-48.73 36.57-48.49 37.06-48.29L37.06-48.29 37.06-48.1Q37.06-47.71 37.26-47.46L37.26-47.46Q37.06-46.78 36.57-46.44 36.08-46.09 35.5-45.85L35.5-45.85Q35.74-45.65 35.79-45.31 35.84-44.97 35.84-44.68L35.84-44.68 35.84-44.09 35.6-44.14Q34.81-44.14 34.81-43.41L34.81-43.41Q34.18-43.8 33.42-43.9 32.67-43.99 31.93-43.99L31.93-43.99Q30.96-43.99 29.88-43.92 28.81-43.85 27.78-43.95L27.78-43.95Q27.39-43.46 26.81-43.24 26.22-43.02 25.63-43.02L25.63-43.02Q25-43.02 24.41-43.29 23.83-43.55 23.58-44.09L23.58-44.09Q23.34-44.19 23.14-44.19L23.14-44.19 22.71-44.19Q21.92-44.19 21.17-44.02 20.41-43.85 19.63-43.63 18.85-43.41 18.09-43.19 17.33-42.97 16.55-42.92L16.55-42.92Q16.26-42.53 15.77-42.38 15.28-42.24 14.99-41.85L14.99-41.85Q13.96-41.65 13.13-41.19 12.3-40.72 11.52-40.19L11.52-40.19 10.01-39.16Q9.28-38.67 8.35-38.33L8.35-38.33Q7.67-37.6 7.08-37.16 6.49-36.72 5.57-36.38L5.57-36.38Q4.98-36.18 4.91-35.79 4.83-35.4 4.49-35.01L4.49-35.01Q4.2-34.67 3.78-34.5 3.37-34.33 3.08-33.94L3.08-33.94Q2.83-33.59 2.71-33.13 2.59-32.67 2.44-32.23 2.29-31.79 2.1-31.37 1.9-30.96 1.51-30.66L1.51-30.66Q1.51-30.47 1.49-30.27 1.46-30.08 1.46-29.93L1.46-29.93Q1.46-29.25 1.64-28.54 1.81-27.83 1.86-27.15L1.86-27.15Q2.83-25.44 4.15-24.05 5.47-22.66 6.98-21.48 8.5-20.31 10.13-19.29 11.77-18.26 13.38-17.29L13.38-17.29Q13.96-17.33 14.45-17.16 14.94-16.99 15.48-16.94L15.48-16.94Q16.06-16.5 16.85-16.26L16.85-16.26 18.41-15.77Q19.19-15.53 19.92-15.21 20.65-14.89 21.14-14.36L21.14-14.36Q21.39-14.31 21.58-14.23 21.78-14.16 22.02-14.16L22.02-14.16Q22.31-14.16 22.36-14.36L22.36-14.36Q24.56-13.53 26.66-12.52 28.76-11.52 31.1-10.99L31.1-10.99Q32.03-10.21 33.15-9.62 34.28-9.03 35.4-8.42 36.52-7.81 37.55-7.1 38.57-6.4 39.36-5.42L39.36-5.42Q39.45-4.49 39.77-3.64 40.09-2.78 40.09-1.81ZM83.79-31.2L83.79-31.2 83.59-31.2Q83.49-31.25 83.4-31.2 83.3-31.15 83.3-31.05L83.3-31.05Q83.4-30.66 83.4-30.52L83.4-30.52Q83.4-29.93 83.03-29.52 82.66-29.1 82.66-28.81L82.66-28.81Q82.66-28.66 82.83-28.56 83.01-28.47 83.1-28.42L83.1-28.42Q82.86-28.13 82.66-27.78 82.47-27.44 82.22-27.2L82.22-27.2Q82.32-25.49 82.64-23.85 82.96-22.22 82.96-20.56L82.96-20.56Q82.96-19.73 82.79-18.92 82.61-18.12 82.42-17.31 82.22-16.5 82.05-15.7 81.88-14.89 81.88-14.06L81.88-14.06Q81.25-12.79 80.52-11.65 79.78-10.5 79.44-9.13L79.44-9.13Q78.32-8.45 77.51-7.45 76.71-6.45 75.93-5.47L75.93-5.47Q74.22-4.88 72.8-3.91L72.8-3.91Q72.56-3.86 72.36-3.86L72.36-3.86 71.97-3.86Q70.11-3.86 68.8-4.54 67.48-5.22 66.53-6.32 65.57-7.42 64.89-8.84 64.21-10.25 63.62-11.77L63.62-11.77Q62.5-10.94 61.59-9.89 60.69-8.84 59.76-7.81L59.76-7.81Q59.47-7.42 59.06-6.91 58.64-6.4 58.25-6.15L58.25-6.15Q58.05-6.05 57.83-5.98 57.61-5.91 57.37-5.81L57.37-5.81Q56-5.03 55.22-3.71L55.22-3.71Q54.25-3.32 53.34-2.83 52.44-2.34 51.61-1.81L51.61-1.81Q50.68-1.76 49.78-1.68 48.87-1.61 48-1.61L48-1.61Q46.63-1.61 46.07-1.78 45.51-1.95 45.19-2.22 44.87-2.49 44.55-2.88 44.24-3.27 43.36-3.71L43.36-3.71Q43.11-4.35 42.89-4.98 42.67-5.62 42.28-6.15L42.28-6.15 42.28-6.84Q42.28-7.28 42.26-7.67 42.23-8.06 42.09-8.37 41.94-8.69 41.6-8.79L41.6-8.79Q41.6-10.6 42.04-12.35 42.48-14.11 42.77-15.92L42.77-15.92Q43.02-16.94 43.06-18.02L43.06-18.02Q43.11-18.26 43.11-18.55 43.11-18.85 43.21-19.14L43.21-19.14Q43.31-19.43 43.55-19.63 43.8-19.82 43.89-20.21L43.89-20.21Q44.14-20.9 44.19-21.73 44.24-22.56 44.33-23.29L44.33-23.29Q44.58-24.76 44.89-26.22 45.21-27.69 45.65-29.1L45.65-29.1Q45.6-29.35 45.6-29.54L45.6-29.54 45.6-30.03Q45.6-31.88 45.87-33.64 46.14-35.4 46.14-37.26L46.14-37.26Q46.14-38.13 45.99-39.11L45.99-39.11Q46.24-39.6 46.56-40.01 46.87-40.43 47.41-40.67L47.41-40.67Q48.44-40.14 49.44-39.53 50.44-38.92 51.36-38.18L51.36-38.18 51.36-37.01Q51.36-35.6 51.29-34.01 51.22-32.42 51-30.81 50.78-29.2 50.44-27.69 50.1-26.17 49.51-24.9L49.51-24.9 49.51-23.34Q48.63-21.78 48.34-20.07 48.04-18.36 47.65-16.65L47.65-16.65Q47.56-16.11 47.26-15.38 46.97-14.65 46.97-14.11L46.97-14.11Q46.97-13.87 47.04-13.62 47.12-13.38 47.17-13.13L47.17-13.13Q46.77-12.26 46.75-11.25 46.73-10.25 46.48-9.28L46.48-9.28Q46.87-8.64 47.19-7.93 47.51-7.23 47.9-6.49L47.9-6.49 48.39-6.54Q48.83-6.54 49.31-6.47 49.8-6.4 50.24-6.4L50.24-6.4Q50.49-6.4 50.73-6.42 50.97-6.45 51.22-6.49L51.22-6.49Q51.51-7.03 52-7.35 52.49-7.67 53-7.91 53.51-8.15 53.98-8.45 54.44-8.74 54.73-9.28L54.73-9.28 55.42-9.28Q55.52-9.42 55.78-9.67 56.05-9.91 56.3-10.16 56.54-10.4 56.71-10.64 56.88-10.89 56.83-11.04L56.83-11.04Q57.42-11.28 57.83-11.69 58.25-12.11 58.64-12.57 59.03-13.04 59.42-13.48 59.81-13.92 60.35-14.21L60.35-14.21Q60.3-14.31 60.3-14.45L60.3-14.45Q60.3-14.89 60.57-15.14 60.84-15.38 60.69-16.02L60.69-16.02 60.84-15.97Q61.08-15.97 61.18-16.11 61.28-16.26 61.35-16.46 61.42-16.65 61.55-16.82 61.67-16.99 61.91-17.04L61.91-17.04 61.91-17.14Q61.91-18.02 62.28-18.8 62.64-19.58 62.64-20.46L62.64-20.46Q62.64-20.7 62.6-20.92 62.55-21.14 62.45-21.39L62.45-21.39Q62.89-21.88 63.01-22.51 63.13-23.14 63.16-23.83 63.18-24.51 63.23-25.2 63.28-25.88 63.62-26.51L63.62-26.51Q63.62-27 63.28-27.2L63.28-27.2 63.86-27.98Q64.16-28.37 64.55-28.61L64.55-28.61 64.65-28.61Q65.18-28.61 65.6-28.34 66.01-28.08 66.38-27.76 66.75-27.44 67.14-27.12 67.53-26.81 68.02-26.66L68.02-26.66 68.02-25.59Q68.5-25.39 68.75-24.9L68.75-24.9Q68.7-23.58 68.67-22.27 68.65-20.95 68.65-19.68L68.65-19.68Q68.65-17.72 68.75-15.8 68.85-13.87 69.24-11.96L69.24-11.96Q69.77-11.43 70.33-10.89 70.9-10.35 71.19-9.67L71.19-9.67 71.77-9.67Q73.48-9.67 74.41-10.77 75.34-11.87 75.73-13.33L75.73-13.33Q76.46-13.67 76.83-14.28 77.19-14.89 77.41-15.63 77.63-16.36 77.81-17.11 77.98-17.87 78.37-18.46L78.37-18.46Q78.42-19.04 78.42-19.63L78.42-19.63 78.42-20.85Q78.42-23.68 78.15-26.49 77.88-29.3 77.83-32.08L77.83-32.08Q77.63-32.47 77.54-33.01L77.54-33.01 77.39-34.08Q77.34-34.62 77.17-35.08 77-35.55 76.66-35.74L76.66-35.74Q76.8-36.23 76.8-36.91L76.8-36.91Q76.8-37.55 76.68-38.18 76.56-38.82 76.41-39.45L76.41-39.45Q76.8-39.79 77.05-40.14 77.29-40.48 77.88-40.48L77.88-40.48Q78.22-40.48 78.49-40.28 78.76-40.09 79-39.84 79.25-39.6 79.51-39.4 79.78-39.21 80.17-39.21L80.17-39.21Q80.27-39.21 80.39-39.23 80.52-39.26 80.66-39.26L80.66-39.26Q81.15-38.77 81.47-38.04 81.78-37.3 82.05-36.5 82.32-35.69 82.64-34.91 82.96-34.13 83.44-33.5L83.44-33.5Q83.44-33.35 83.42-33.23 83.4-33.11 83.4-32.96L83.4-32.96Q83.4-32.52 83.54-32.08 83.69-31.64 83.79-31.2ZM97.46-6.69L97.46-6.69Q97.21-6.3 96.87-5.98 96.53-5.66 96.24-5.32L96.24-5.32Q95.89-5.18 95.48-5.18 95.06-5.18 94.7-5.2 94.33-5.22 94.01-5.2 93.7-5.18 93.5-4.98L93.5-4.98Q93.11-5.08 92.91-5.35 92.72-5.62 92.23-5.66L92.23-5.66Q92.04-5.71 91.84-5.66L91.84-5.66Q91.11-6.49 90.5-7.42 89.89-8.35 89.35-9.18L89.35-9.18Q89.3-10.99 89.06-12.84L89.06-12.84Q89.01-13.28 88.91-13.72 88.81-14.16 88.76-14.55L88.76-14.55Q88.76-15.04 88.84-15.5 88.91-15.97 88.96-16.36L88.96-16.36Q89.16-17.77 89.4-19.14 89.64-20.51 89.84-21.92L89.84-21.92Q90.03-23.19 90.03-24.58 90.03-25.98 89.59-27.2L89.59-27.2 89.55-27.44Q89.64-27.83 89.77-28.1 89.89-28.37 89.94-28.71L89.94-28.71Q90.03-29.25 89.69-29.49L89.69-29.49Q89.84-29.88 90.18-30 90.52-30.13 90.57-30.57L90.57-30.57Q90.62-30.76 90.57-30.96L90.57-30.96Q90.96-31.1 91.38-31.23 91.79-31.35 92.18-31.25L92.18-31.25Q92.82-31.15 93.31-30.83 93.79-30.52 94.23-30.13L94.23-30.13Q95.01-27.78 94.87-25.17 94.72-22.56 94.38-19.92 94.04-17.29 93.94-14.77 93.84-12.26 94.72-10.11L94.72-10.11 94.82-10.06Q95.06-10.01 95.21-10.23 95.36-10.45 95.6-10.4L95.6-10.4Q95.8-10.3 95.84-10.3L95.84-10.3Q96.04-9.33 96.48-8.45 96.92-7.57 97.46-6.69ZM149.06-6.15L149.06-6.15Q148.82-5.37 148.92-4.59L148.92-4.59Q148.77-4.39 148.58-4.35 148.38-4.3 148.19-4.22 147.99-4.15 147.87-4.03 147.75-3.91 147.84-3.56L147.84-3.56Q146.23-3.47 144.77-2.88 143.3-2.29 141.89-1.61L141.89-1.61Q141.15-1.86 140.62-2.2 140.08-2.54 139.25-2.64L139.25-2.64Q138.42-4.3 137.71-6.13 137-7.96 137-9.81L137-9.81Q137-11.18 137.49-12.3L137.49-12.3Q137.49-13.77 137.74-15.19 137.98-16.6 138.3-17.99 138.62-19.38 138.86-20.8 139.1-22.22 139.1-23.68L139.1-23.68 139.1-24.76Q139.01-24.76 138.86-24.54 138.71-24.32 138.59-24.05 138.47-23.78 138.37-23.54 138.27-23.29 138.22-23.24L138.22-23.24Q137.39-22.61 136.93-21.66 136.47-20.7 135.93-19.87L135.93-19.87Q135.25-18.85 134.49-17.87 133.73-16.89 132.61-16.36L132.61-16.36 132.61-16.26Q132.61-16.02 132.46-15.92 132.32-15.82 132.41-15.43L132.41-15.43Q131.19-15.04 130.14-14.31 129.09-13.57 128.41-12.45L128.41-12.45Q127.43-12.21 126.58-11.79 125.72-11.38 124.85-10.89L124.85-10.89Q124.46-10.69 124.02-10.4 123.58-10.11 123.14-10.01L123.14-10.01Q122.75-9.86 122.09-9.81 121.43-9.77 120.72-9.72 120.01-9.67 119.33-9.67L119.33-9.67 118.25-9.67Q118.01-9.67 117.62-9.91 117.23-10.16 116.76-10.45 116.3-10.74 115.81-11.01 115.32-11.28 114.89-11.38L114.89-11.38Q114.49-12.65 113.79-13.65 113.08-14.65 112.3-15.67L112.3-15.67Q112.05-16.85 111.64-18.12 111.22-19.38 110.2-20.21L110.2-20.21Q110.44-20.56 110.44-21L110.44-21Q110.44-21.53 110.2-22.02 109.95-22.51 109.95-23.1L109.95-23.1Q109.95-23.49 110-23.68L110-23.68Q109.47-23.1 109.25-22.19 109.03-21.29 109.03-20.56L109.03-20.56Q109.03-19.97 109.17-19.48L109.17-19.48Q108.68-18.8 108.56-17.77 108.44-16.75 108.44-15.97L108.44-15.97Q108.44-14.99 108.59-14.06L108.59-14.06Q107.81-13.28 107.81-12.16L107.81-12.16Q107.81-11.52 108.1-11.04L108.1-11.04Q108.1-10.84 108-10.74 107.9-10.64 107.78-10.6 107.66-10.55 107.54-10.47 107.41-10.4 107.41-10.21L107.41-10.21Q107.41-9.96 107.44-9.67 107.46-9.38 107.46-9.08L107.46-9.08Q107.46-8.4 107.41-7.67 107.37-6.93 107.37-6.25L107.37-6.25Q107.37-4.83 107.63-4.22 107.9-3.61 108.32-3.32 108.73-3.03 109.22-2.73 109.71-2.44 110.2-1.61L110.2-1.61Q110.05-1.17 109.68-0.9 109.32-0.63 109-0.37 108.68-0.1 108.44 0.24 108.2 0.59 108.24 1.22L108.24 1.22 108 1.22Q107.37 1.22 106.78 1.42 106.19 1.61 105.56 1.61L105.56 1.61Q105.41 1.61 105.27 1.59 105.12 1.56 104.97 1.56L104.97 1.56 104.48 1.27Q104.24 1.12 104 1.12L104 1.12Q103.75 1.12 103.36 1.22L103.36 1.22Q102.68-0.98 102.31-3.32 101.95-5.66 101.95-7.91L101.95-7.91Q101.95-8.15 102.07-8.42 102.19-8.69 102.43-8.59L102.43-8.59 102.43-9.52Q102.43-11.04 102.7-12.48 102.97-13.92 102.97-15.48L102.97-15.48Q102.97-15.92 102.95-16.36 102.92-16.8 102.87-17.19L102.87-17.19Q103.12-18.02 103.39-18.87 103.65-19.73 103.65-20.65L103.65-20.65Q103.65-21.04 103.51-21.58L103.51-21.58Q103.9-21.88 104.09-22.34 104.29-22.8 104.39-23.36 104.48-23.93 104.53-24.46 104.58-25 104.63-25.44L104.63-25.44Q105.12-26.42 105.17-27.54 105.22-28.66 105.66-29.64L105.66-29.64Q105.61-29.83 105.61-30.32L105.61-30.32Q105.61-31.3 105.93-32.3 106.24-33.3 107.22-33.84L107.22-33.84Q108.1-33.5 109.27-33.5L109.27-33.5Q110.39-33.5 111.42-33.84L111.42-33.84Q111.71-33.74 111.96-33.62 112.2-33.5 112.47-33.37 112.74-33.25 113.03-33.18 113.32-33.11 113.71-33.15L113.71-33.15Q114.2-31.74 114.57-30.27 114.93-28.81 115.13-27.29L115.13-27.29Q115.23-26.66 115.2-25.93 115.18-25.2 115.28-24.56L115.28-24.56Q115.32-24.17 115.52-23.85 115.72-23.54 115.91-23.14 116.11-22.75 116.23-22.27 116.35-21.78 116.3-21.04L116.3-21.04Q116.84-19.78 117.5-18.63 118.16-17.48 118.94-16.36L118.94-16.36Q119.38-16.21 119.72-15.99 120.06-15.77 120.16-15.28L120.16-15.28Q120.6-15.28 120.94-15.14L120.94-15.14 121.77-14.89Q123.63-15.48 125.21-16.46 126.8-17.43 128.56-18.12L128.56-18.12Q130.71-20.21 132.27-22.78 133.83-25.34 135.39-27.88L135.39-27.88 135.39-28.96Q135.69-29.1 135.91-29.32 136.13-29.54 136.47-29.64L136.47-29.64Q136.52-30.22 136.74-30.79 136.96-31.35 137.22-31.86 137.49-32.37 137.69-32.89 137.88-33.4 137.88-33.98L137.88-33.98Q137.88-34.33 137.83-34.57L137.83-34.57Q138.57-35.3 139.59-35.3L139.59-35.3Q140.57-35.3 141.57-34.84 142.57-34.38 143.45-33.98L143.45-33.98Q143.99-32.81 144.26-31.52 144.52-30.22 144.62-28.86 144.72-27.49 144.72-26.12L144.72-26.12 144.72-22.66Q144.67-22.27 144.45-22.09 144.23-21.92 144.13-21.58L144.13-21.58 144.13-21.09Q144.13-20.85 144.08-20.61L144.08-20.61Q144.08-19.58 143.84-18.46L143.84-18.46Q143.6-17.04 143.23-15.6 142.86-14.16 142.86-12.7L142.86-12.7Q142.86-12.16 142.91-11.62 142.96-11.08 143.11-10.55L143.11-10.55Q142.86-10.11 142.86-9.42L142.86-9.42Q142.86-8.64 143.13-7.98 143.4-7.32 143.79-6.69L143.79-6.69Q144.47-6.69 145.16-6.74 145.84-6.79 146.57-6.79L146.57-6.79Q147.26-6.79 147.84-6.67 148.43-6.54 149.06-6.15ZM191.45 5.81L191.45 5.81Q191.45 6.4 191.1 6.81 190.76 7.23 190.27 7.5 189.78 7.76 189.25 7.98 188.71 8.2 188.32 8.45L188.32 8.45Q187.2 8.2 185.98 8.03 184.76 7.86 183.78 7.37L183.78 7.37Q181.78 5.18 180.97 2.32 180.17-0.54 179.92-3.37L179.92-3.37Q179.82-4.2 179.82-5 179.82-5.81 179.73-6.64L179.73-6.64Q179.63-7.37 178.85-7.52L178.85-7.52Q179.43-7.62 179.68-8.13 179.92-8.64 179.97-9.3 180.02-9.96 179.99-10.62 179.97-11.28 180.07-11.72L180.07-11.72Q179.68-11.57 179.38-11.06 179.09-10.55 178.85-9.91 178.6-9.28 178.38-8.67 178.16-8.06 177.97-7.71L177.97-7.71Q175.92-4.2 173.21-1.32 170.5 1.56 167.62 4.39L167.62 4.39Q166.79 4.69 166.05 5.15 165.32 5.62 164.69 6.15L164.69 6.15Q162.83 6.69 161.17 6.69L161.17 6.69Q159.66 6.69 158.19 6.27 156.73 5.86 155.56 4.88L155.56 4.88 153.75 0.78Q153.6 0.39 153.41-0.02 153.21-0.44 153.12-0.83L153.12-0.83Q153.02-1.27 153.04-1.78 153.07-2.29 153.07-2.69L153.07-2.69Q153.07-4.39 153.19-6.13 153.31-7.86 153.55-9.57L153.55-9.57Q153.65-10.25 153.85-10.99 154.04-11.72 154.14-12.4L154.14-12.4 154.14-12.94Q154.14-13.18 154.09-13.55 154.04-13.92 153.8-14.01L153.8-14.01Q154.97-16.85 154.97-19.92L154.97-19.92Q154.97-20.41 154.95-20.87 154.92-21.34 154.87-21.83L154.87-21.83Q155.21-22.17 155.31-22.63 155.41-23.1 155.41-23.61 155.41-24.12 155.43-24.61 155.46-25.1 155.7-25.54L155.7-25.54Q155.65-26.07 155.63-26.59 155.61-27.1 155.61-27.64L155.61-27.64Q155.61-30.91 156.12-34.11 156.63-37.3 156.63-40.58L156.63-40.58 156.63-42.63Q156.63-43.31 156.66-44.04 156.68-44.78 156.85-45.46 157.02-46.14 157.36-46.75 157.7-47.36 158.34-47.8L158.34-47.8Q158.44-47.8 158.51-47.83 158.58-47.85 158.68-47.85L158.68-47.85Q159.12-47.85 159.37-47.63 159.61-47.41 160.1-47.46L160.1-47.46Q160.98-46.19 161.49-44.78 162-43.36 162-41.8L162-41.8Q162-40.63 161.66-39.5 161.32-38.38 161.32-37.16L161.32-37.16Q161.32-36.67 161.37-36.18 161.42-35.69 161.42-35.21L161.42-35.21Q161.42-34.72 161.29-34.25 161.17-33.79 160.83-33.45L160.83-33.45Q160.93-32.47 160.98-31.47 161.03-30.47 161.03-29.49L161.03-29.49Q161.03-26.71 160.68-23.93 160.34-21.14 159.9-18.36 159.46-15.58 159.12-12.79 158.78-10.01 158.78-7.18L158.78-7.18 158.78-5.76Q158.78-5.08 158.88-4.35L158.88-4.35Q158.58-3.66 158.58-2.88L158.58-2.88Q158.58-1.81 159.07-0.78 159.56 0.24 160.24 1.07L160.24 1.07Q160.49 1.12 160.71 1.15 160.93 1.17 161.17 1.17L161.17 1.17Q162.44 1.17 163.44 0.63 164.44 0.1 165.35-0.68 166.25-1.46 167.13-2.29 168.01-3.13 169.03-3.66L169.03-3.66Q170.6-5.66 171.96-7.69 173.33-9.72 174.6-11.91L174.6-11.91Q174.7-13.09 175.21-14.28 175.72-15.48 176.28-16.65 176.85-17.82 177.31-18.95 177.77-20.07 177.77-21.09L177.77-21.09Q177.77-21.63 177.43-21.83L177.43-21.83Q177.92-23.1 178.16-24.46 178.41-25.83 178.58-27.2 178.75-28.56 178.95-29.91 179.14-31.25 179.53-32.57L179.53-32.57Q179.53-32.86 179.51-33.15 179.48-33.45 179.48-33.74L179.48-33.74Q179.48-35.99 179.92-38.16 180.36-40.33 180.36-42.58L180.36-42.58Q180.36-43.12 180.29-43.58 180.21-44.04 180.21-44.48L180.21-44.48Q180.21-44.87 180.48-44.97 180.75-45.07 180.75-45.51L180.75-45.51Q180.75-45.9 180.68-46.34 180.61-46.78 180.61-47.27L180.61-47.27Q180.61-48.78 180.9-50.24 181.19-51.71 181.19-53.22L181.19-53.22 181.19-53.81Q181.19-54.15 181.09-54.44L181.09-54.44Q181.44-54.98 182.02-55.15 182.61-55.32 183.14-55.32L183.14-55.32Q184.02-55.32 184.61-55.13L184.61-55.13Q185.54-52.64 186.17-50.02 186.81-47.41 187.2-44.73L187.2-44.73Q187.29-44.09 187.47-43.38 187.64-42.68 187.64-41.99L187.64-41.99Q187.64-41.85 187.56-41.65 187.49-41.46 187.44-41.26L187.44-41.26Q187.39-40.87 187.37-40.48 187.34-40.09 187.34-39.7L187.34-39.7Q187.34-38.53 187.49-37.35 187.64-36.18 187.64-34.96L187.64-34.96Q187.64-33.59 187.27-32.35 186.9-31.1 186.71-29.74L186.71-29.74Q186.51-28.32 186.56-26.95 186.61-25.59 186.37-24.17L186.37-24.17Q186.27-23.58 186.07-23.02 185.88-22.46 185.88-21.83L185.88-21.83Q185.88-21.39 185.95-20.95 186.03-20.51 186.03-20.02L186.03-20.02Q186.03-19.29 185.68-18.9L185.68-18.9Q185.78-18.51 185.83-18.19 185.88-17.87 186.03-17.48L186.03-17.48Q185.78-17.19 185.68-16.85 185.59-16.5 185.59-16.11L185.59-16.11Q185.59-15.63 185.63-15.21 185.68-14.79 185.68-14.36L185.68-14.36Q185.68-13.33 185.37-12.4 185.05-11.47 184.95-10.5L184.95-10.5Q184.9-9.81 184.93-9.16 184.95-8.5 184.95-7.81L184.95-7.81Q184.95-7.08 184.88-6.4 184.8-5.71 184.46-5.03L184.46-5.03Q184.56-4.74 184.71-4.44 184.85-4.15 185.15-4L185.15-4Q185.15-2.49 185.56-0.95 185.98 0.59 186.71 1.95L186.71 1.95Q186.86 2.25 187.15 2.39 187.44 2.54 187.69 2.71 187.93 2.88 188.08 3.13 188.22 3.37 188.12 3.86L188.12 3.86Q188.22 3.91 188.42 3.91L188.42 3.91Q188.81 3.91 189.08 3.71 189.35 3.52 189.74 3.52L189.74 3.52 190.08 3.52Q190.52 3.96 190.98 4.54 191.45 5.13 191.45 5.81ZM232.21-27.88L232.21-27.15Q232.21-26.46 232.17-25.78 232.12-25.1 232.02-24.41L232.02-24.41Q231.68-23.93 231.36-23.56 231.04-23.19 230.94-22.66L230.94-22.66Q230.41-22.27 229.75-21.58 229.09-20.9 229.19-20.21L229.19-20.21 228.5-20.21Q227.92-19.34 227.14-18.7 226.35-18.07 225.48-17.48L225.48-17.48 223.77-16.36Q222.94-15.82 222.2-15.09L222.2-15.09Q221.81-15.04 221.57-14.94 221.33-14.84 220.93-14.89L220.93-14.89Q219.42-13.92 217.79-13.18 216.15-12.45 214.51-11.74 212.88-11.04 211.27-10.25 209.66-9.47 208.19-8.45L208.19-8.45Q208.04-8.5 207.8-8.5L207.8-8.5Q207.36-8.5 206.92-8.37 206.48-8.25 206.04-8.25L206.04-8.25Q205.85-8.25 205.53-8.3 205.21-8.35 205.07-8.45L205.07-8.45Q204.82-8.59 204.63-8.89 204.43-9.18 204.33-9.55 204.24-9.91 204.19-10.25 204.14-10.6 204.14-10.84L204.14-10.84Q204.14-11.13 204.19-11.47 204.24-11.82 204.33-12.11L204.33-12.11Q205.75-12.21 207.19-12.84 208.63-13.48 209.95-14.06L209.95-14.06Q210.29-14.21 210.51-14.43 210.73-14.65 210.97-14.82 211.22-14.99 211.51-15.14 211.8-15.28 212.24-15.28L212.24-15.28 212.39-15.28Q215.47-16.7 218.42-18.36 221.37-20.02 224.3-21.73L224.3-21.73Q224.45-22.17 224.77-22.61 225.09-23.05 225.38-23.46 225.67-23.88 225.92-24.32 226.16-24.76 226.16-25.2L226.16-25.2Q226.16-26.07 225.33-26.66L225.33-26.66 225.13-26.66Q224.55-26.66 224.11-26.83 223.67-27 223.28-27.17 222.89-27.34 222.4-27.47 221.91-27.59 221.28-27.54L221.28-27.54Q221.03-27.73 220.5-27.88 219.96-28.03 219.62-28.03L219.62-28.03Q217.86-28.03 216.15-27.81 214.44-27.59 212.73-27.54L212.73-27.54Q212.29-27.29 211.9-27.1 211.51-26.9 210.97-26.9L210.97-26.9Q210.73-26.9 210.53-26.93 210.34-26.95 210.09-27L210.09-27Q209.17-26.61 208-26.34 206.82-26.07 205.68-25.71 204.53-25.34 203.55-24.8 202.58-24.27 202.04-23.34L202.04-23.34Q202.04-23.1 202.14-22.92 202.23-22.75 202.23-22.51L202.23-22.51 202.23-22.31Q201.94-22.02 201.84-21.66 201.75-21.29 201.7-20.92 201.65-20.56 201.57-20.19 201.5-19.82 201.21-19.48L201.21-19.48Q201.4-18.75 201.4-17.87L201.4-17.87Q201.4-16.89 201.28-15.92 201.16-14.94 201.16-13.96L201.16-13.96Q201.16-13.04 201.35-12.3L201.35-12.3Q201.06-12.01 201.11-11.43 201.16-10.84 200.87-10.55L200.87-10.55Q200.87-10.16 201.09-10.01 201.31-9.86 201.35-9.52L201.35-9.52Q201.16-8.69 201.16-7.71L201.16-7.71Q201.16-6.3 201.48-4.83 201.79-3.37 202.23-1.95L202.23-1.95Q203.01-2.2 203.92-2.37 204.82-2.54 205.65-2.54L205.65-2.54Q205.8-2.54 205.94-2.51 206.09-2.49 206.24-2.49L206.24-2.49Q206.34-1.95 206.63-1.51 206.92-1.07 207.17-0.54L207.17-0.54Q206.92-0.2 206.75 0.02 206.58 0.24 206.58 0.63L206.58 0.63Q205.9 0.68 205.46 1 205.02 1.32 204.48 1.71L204.48 1.71 204.28 1.71Q203.45 1.71 202.92 2.03 202.38 2.34 201.7 2.73L201.7 2.73Q201.11 2.49 200.52 2.49L200.52 2.49Q199.89 2.49 199.26 2.73L199.26 2.73Q198.47 2.39 197.99 1.68 197.5 0.98 197.16 0.12 196.81-0.73 196.55-1.61 196.28-2.49 195.93-3.22L195.93-3.22 195.93-4Q195.93-5.13 195.76-6.18 195.59-7.23 195.59-8.35L195.59-8.35Q195.59-8.79 195.67-9.28 195.74-9.77 195.93-10.21L195.93-10.21Q195.84-10.64 195.84-11.04L195.84-11.04 195.84-11.96Q195.84-13.43 195.96-14.89 196.08-16.36 196.08-17.82L196.08-17.82Q196.08-18.9 195.93-20.02L195.93-20.02Q195.69-19.92 195.5-19.82 195.3-19.73 195.06-19.73L195.06-19.73Q194.81-19.73 194.59-19.78 194.37-19.82 194.18-19.87L194.18-19.87Q193.69-20.31 193.49-20.95 193.3-21.58 192.96-22.12L192.96-22.12Q192.96-23.05 193.22-23.66 193.49-24.27 193.88-24.78 194.27-25.29 194.69-25.78 195.1-26.27 195.4-27L195.4-27 195.59-27Q196.37-27 197.16-27.51 197.94-28.03 198.91-28.03L198.91-28.03Q199.26-28.47 199.84-28.78 200.43-29.1 201.09-29.3 201.75-29.49 202.4-29.57 203.06-29.64 203.65-29.64L203.65-29.64Q203.84-29.98 204.24-30.1 204.63-30.22 205.04-30.35 205.46-30.47 205.82-30.59 206.19-30.71 206.43-31.05L206.43-31.05Q206.82-30.96 207.17-30.96L207.17-30.96Q207.8-30.96 208.39-31.13 208.97-31.3 209.56-31.52 210.14-31.74 210.75-31.93 211.36-32.13 212.05-32.13L212.05-32.13Q212.29-32.13 212.54-32.1 212.78-32.08 213.02-32.08L213.02-32.08Q213.42-32.08 213.49-32.37 213.56-32.67 213.81-32.81L213.81-32.81Q213.95-32.76 214.34-32.76L214.34-32.76Q215.32-32.76 216.25-32.93 217.18-33.11 218.15-33.11L218.15-33.11Q218.59-33.11 219.03-33.06 219.47-33.01 219.91-32.81L219.91-32.81Q220.01-32.96 220.1-33.06 220.2-33.15 220.25-33.3L220.25-33.3Q222.64-33.15 224.77-32.32 226.89-31.49 229.19-30.86L229.19-30.86Q229.48-30.42 229.87-30.08L229.87-30.08 230.7-29.39Q231.14-29.05 231.53-28.71 231.92-28.37 232.21-27.88L232.21-27.88Z" opacity="1" transform="matrix(1,0,0,1,0,0)" fill="#ffffff" class="wordmark-text-0" data-fill-palette-color="primary" id="text-0"></path></svg></g></svg></g><g transform="matrix(1,0,0,1,0,60.15388951118476)"><svg viewBox="0 0 192 15.942871377563728" height="15.942871377563728" width="192"><g transform="matrix(1,0,0,1,0,0)"><svg width="192" viewBox="0.75 -37.5 602.0900268554688 50" height="15.942871377563728" data-palette-color="#f6f6f6"><path d="M10.8 0L0.75 0.05 0.8-0.65 3.4-1Q3.75-1.05 4-1.65L4-1.65 14.8-35 18.1-35 29.6-0.95 33.05-0.75Q33.05-0.7 33 0L33 0 23 0.05Q23-0.4 23.05-0.65L23.05-0.65 25.65-1Q26.05-1.05 26.05-1.6L26.05-1.6 23.3-9.75 7.7-9.75 5.05-1.05 10.85-0.75Q10.85-0.7 10.8 0L10.8 0ZM22.95-10.75L15.15-34.05 8-10.75 22.95-10.75ZM56.85 12.45L46.3 12.5 46.35 11.8 48.95 11.45Q49.3 11.4 49.4 10.9L49.4 10.9 49.4-1.55Q46.6 0.2 42.9 0.2L42.9 0.2Q39.25 0.2 36.15-1.85L36.15-1.85Q34.4-3 33.32-5.48 32.25-7.95 32.25-11.5L32.25-11.5Q32.25-18.05 35.6-21.5L35.6-21.5Q39.15-25.2 43.7-25.2L43.7-25.2Q46.5-25.2 49.4-23.75L49.4-23.75 49.4-24.75 52.65-25 52.65 11.45 56.9 11.7Q56.85 12.4 56.85 12.45L56.85 12.45ZM43.55-0.7L43.55-0.7Q46.7-0.7 49.4-2.45L49.4-2.45 49.4-22.95Q47.2-24.3 45.05-24.3L45.05-24.3Q40.75-24.3 38.12-21 35.5-17.7 35.5-11.55L35.5-11.55Q35.5-0.7 43.55-0.7ZM62.05-23.95L59.45-24.2 59.4-24.95 66.15-25 66.15-7.6Q66.15-5.65 66.7-4.23 67.25-2.8 67.92-2.15 68.59-1.5 69.5-1.15L69.5-1.15Q70.9-0.65 71.84-0.75L71.84-0.75Q74.9-0.8 78.8-3.9L78.8-3.9 78.8-23.25Q78.59-23.85 77.95-23.95L77.95-23.95 75.34-24.2Q75.3-24.5 75.3-24.95L75.3-24.95 82.05-25 82.05-2.3Q82.15-1.05 82.84-1.05L82.84-1.05 85.84-0.9 85.8-0.15Q83.4 0.25 80.8 0.25L80.8 0.25Q80.2 0.2 79.5-0.43 78.8-1.05 78.8-2L78.8-2 78.8-2.9Q74.25 0.15 70.2 0.15L70.2 0.15Q68.5 0.15 66.2-0.7L66.2-0.7Q64.7-1.25 63.8-2.78 62.9-4.3 62.9-6.6L62.9-6.6 62.9-23.2Q62.9-23.45 62.62-23.68 62.35-23.9 62.05-23.95L62.05-23.95ZM106.34-1.9L106.34-1.9 106.19-1.9Q101.69 0.2 97.44 0.2L97.44 0.2Q90.79 0.2 90.39-5.05L90.39-5.05Q90.34-5.4 90.34-5.7L90.34-5.7Q90.34-9.55 95.39-10.85L95.39-10.85Q98.39-11.5 106.19-12.4L106.19-12.4 106.19-16.8Q106.19-18.9 105.69-20.4 105.19-21.9 104.59-22.63 103.99-23.35 103.04-23.75L103.04-23.75Q101.84-24.25 100.37-24.25 98.89-24.25 96.99-23.5L96.99-23.5Q94.24-22.35 92.09-20.6L92.09-20.6 91.89-16.7 90.94-16.45 90.94-22.5 91.44-22.7Q95.34-24.4 97.39-24.75 99.44-25.1 100.39-25.13 101.34-25.15 102.22-25.1 103.09-25.05 104.49-24.65 105.89-24.25 106.92-23.53 107.94-22.8 108.69-21.35 109.44-19.9 109.44-17.9L109.44-17.9 109.44-2.6Q109.44-1.05 110.24-1.05L110.24-1.05 113.29-0.9 113.24-0.15Q110.44 0.25 108.24 0.25L108.24 0.25Q107.64 0.2 106.99-0.38 106.34-0.95 106.34-1.9ZM98.34-0.6L98.34-0.6Q102.04-0.6 106.19-3.2L106.19-3.2 106.19-11.45Q98.69-11.2 96.77-10.58 94.84-9.95 94.12-8.63 93.39-7.3 93.39-6L93.39-6Q93.39-5.75 93.39-5.5L93.39-5.5Q93.54-2.9 94.94-1.75 96.34-0.6 98.34-0.6ZM125.69-0.95L125.69-0.95 127.64-1.05 127.79-0.55Q127.74-0.55 127.09-0.4L127.09-0.4Q125.59-0.05 123.74-0.05L123.74-0.05Q122.04-0.15 120.64-0.63 119.24-1.1 118.04-2.63 116.84-4.15 116.84-6.55L116.84-6.55 116.84-24.1 114.29-24.1 114.69-24.5 116.89-24.95 117.29-29.75 120.09-30 120.09-25 126.14-25 126.14-24.1 120.09-24.1 120.09-7.4Q120.09-3.6 121.69-2.27 123.29-0.95 125.69-0.95ZM136.84-22.95L136.84-22.95 136.84-1 140.59-0.75Q140.59-0.7 140.54 0L140.54 0 130.54 0.05Q130.54-0.4 130.59-0.65L130.59-0.65 133.19-1Q133.49-1 133.59-1.45L133.59-1.45 133.59-23.4Q133.49-23.75 133.29-23.75L133.29-23.75 130.29-23.85 130.34-24.55Q133.04-25 134.44-25 135.84-25 136.34-24.35 136.84-23.7 136.84-22.95ZM135.14-31.7Q134.14-31.7 133.59-32.33 133.04-32.95 133.04-33.98 133.04-35 133.61-35.63 134.19-36.25 135.19-36.25 136.19-36.25 136.81-35.63 137.44-35 137.44-33.93 137.44-32.85 136.79-32.27 136.14-31.7 135.14-31.7ZM158.09-24.3L158.09-24.3Q153.84-24.3 151.21-20.98 148.59-17.65 148.59-11.55L148.59-11.55Q148.59-0.7 156.84-0.7L156.84-0.7Q160.09-0.7 162.39-1.33 164.69-1.95 164.89-2.1L164.89-2.1 165.24-1.55Q164.09-0.8 161.44-0.3 158.79 0.2 156.64 0.2 154.49 0.2 152.74-0.25 150.99-0.7 149.21-1.85 147.44-3 146.39-5.48 145.34-7.95 145.34-11.5L145.34-11.5Q145.34-18.05 148.69-21.4L148.69-21.4Q152.44-25.25 158.14-25.25L158.14-25.25Q159.94-25.25 161.96-24.78 163.99-24.3 165.09-23.3L165.09-23.3 165.09-16.75 164.14-16.4 163.89-21.65Q162.79-22.8 161.21-23.55 159.64-24.3 158.09-24.3ZM176.08-0.6L176.08-0.6Q176.38-0.6 176.68-0.65L176.68-0.65Q179.28-0.7 181.03-2.27 182.78-3.85 182.78-6.9L182.78-6.9Q182.78-9.9 178.08-11.25L178.08-11.25Q176.13-11.8 174.18-12.45 172.23-13.1 170.86-14.5 169.48-15.9 169.48-18.15L169.48-18.15Q169.48-21.35 171.93-23.28 174.38-25.2 178.13-25.2L178.13-25.2Q180.93-25.2 183.78-24.2L183.78-24.2 184.68-23.85 184.68-18.1 183.73-17.75 183.53-22Q180.63-24.3 178.68-24.3L178.68-24.3Q175.93-24.3 174.33-22.68 172.73-21.05 172.73-18.35L172.73-18.35Q172.73-16.8 174.11-15.85 175.48-14.9 177.43-14.35 179.38-13.8 181.33-13.13 183.28-12.45 184.66-10.93 186.03-9.4 186.03-6.95L186.03-6.95Q186.03-3.65 183.56-1.73 181.08 0.2 176.53 0.2 171.98 0.2 168.98-1.95L168.98-1.95 168.98-7.7 169.88-8.05 170.13-3.8Q170.83-2.5 172.66-1.55 174.48-0.6 176.08-0.6ZM238.13-24.95L248.13-25Q248.13-24.95 248.18-24.25L248.18-24.25 245.28-23.95 243.48-23.55 234.53 0 231.53 0 225.68-19.8 218.93 0 215.93 0 208.13-23.35Q207.83-23.9 207.38-23.95L207.38-23.95 204.78-24.2Q204.73-24.5 204.73-24.95L204.73-24.95 215.23-25Q215.23-24.95 215.28-24.25L215.28-24.25 211.68-24 218.43-1.6 225.73-24.75 227.43-25 233.78-0.8 241.63-23.2Q241.78-23.5 241.48-23.7 241.18-23.9 240.78-23.95L240.78-23.95 238.18-24.2Q238.13-24.5 238.13-24.95L238.13-24.95ZM258.85 0.2Q253.63 0.2 250.4-2.8 247.18-5.8 247.18-11.98 247.18-18.15 250.6-21.68 254.03-25.2 259.23-25.2 264.43-25.2 267.68-22.2 270.93-19.2 270.93-13.03 270.93-6.85 267.5-3.33 264.08 0.2 258.85 0.2ZM259.18-24.3Q255.43-24.3 252.93-21.05 250.43-17.8 250.43-12.23 250.43-6.65 252.8-3.68 255.18-0.7 258.93-0.7 262.68-0.7 265.18-3.95 267.68-7.2 267.68-12.75 267.68-18.3 265.3-21.3 262.93-24.3 259.18-24.3ZM280.22-22.95L280.22-22.95 280.22-18.95Q284.17-24.75 287.97-24.85L287.97-24.85Q288.27-24.85 288.57-24.85L288.57-24.85 291.37-24.5 290.07-21.5Q289.12-22.45 287.62-22.45L287.62-22.45Q283.97-22.4 280.22-17.6L280.22-17.6 280.22-1 284.47-0.75Q284.47-0.7 284.42 0L284.42 0 273.92 0.05Q273.92-0.4 273.97-0.65L273.97-0.65 276.57-1Q276.97-1.05 276.97-1.7L276.97-1.7 276.97-23.4Q276.87-23.75 276.67-23.75L276.67-23.75 273.67-23.85 273.72-24.55Q276.42-25 277.82-25 279.22-25 279.72-24.35 280.22-23.7 280.22-22.95ZM304.17 0L294.12 0.05 294.17-0.65 296.77-1Q297.12-1.05 297.22-1.5L297.22-1.5 297.22-35.7Q297.22-36.25 296.92-36.25L296.92-36.25 293.87-36.35 293.92-37.05Q297.07-37.5 298.25-37.5 299.42-37.5 299.95-36.85 300.47-36.2 300.47-35.45L300.47-35.45 300.47-1 304.22-0.75Q304.22-0.7 304.17 0L304.17 0ZM328.87-35.45L328.87-35.45 328.87-2.6Q328.87-1.05 329.67-1.05L329.67-1.05 332.67-0.9 332.62-0.15Q330.22 0.25 327.62 0.25L327.62 0.25Q327.07 0.2 326.44-0.3 325.82-0.8 325.72-1.6L325.72-1.6Q322.87 0.2 319.12 0.2L319.12 0.2Q315.47 0.2 312.37-1.85L312.37-1.85Q310.62-3 309.54-5.48 308.47-7.95 308.47-11.5L308.47-11.5Q308.47-18.05 311.82-21.5L311.82-21.5Q315.37-25.2 319.92-25.2L319.92-25.2Q322.72-25.2 325.62-23.75L325.62-23.75 325.62-35.7Q325.62-36.25 325.32-36.25L325.32-36.25 322.27-36.35 322.32-37.05Q325.47-37.5 326.64-37.5 327.82-37.5 328.34-36.85 328.87-36.2 328.87-35.45ZM319.77-0.7L319.77-0.7Q322.82-0.7 325.62-2.05L325.62-2.05 325.62-22.95Q323.42-24.3 321.27-24.3L321.27-24.3Q316.97-24.3 314.34-21 311.72-17.7 311.72-11.55L311.72-11.55Q311.72-0.7 319.77-0.7ZM365.11-24.3L365.11-24.3Q360.86-24.3 358.24-20.98 355.61-17.65 355.61-11.55L355.61-11.55Q355.61-0.7 363.86-0.7L363.86-0.7Q367.11-0.7 369.41-1.33 371.71-1.95 371.91-2.1L371.91-2.1 372.26-1.55Q371.11-0.8 368.46-0.3 365.81 0.2 363.66 0.2 361.51 0.2 359.76-0.25 358.01-0.7 356.24-1.85 354.46-3 353.41-5.48 352.36-7.95 352.36-11.5L352.36-11.5Q352.36-18.05 355.71-21.4L355.71-21.4Q359.46-25.25 365.16-25.25L365.16-25.25Q366.96-25.25 368.99-24.78 371.01-24.3 372.11-23.3L372.11-23.3 372.11-16.75 371.16-16.4 370.91-21.65Q369.81-22.8 368.24-23.55 366.66-24.3 365.11-24.3ZM386.69 0.2Q381.46 0.2 378.24-2.8 375.01-5.8 375.01-11.98 375.01-18.15 378.44-21.68 381.86-25.2 387.06-25.2 392.26-25.2 395.51-22.2 398.76-19.2 398.76-13.03 398.76-6.85 395.34-3.33 391.91 0.2 386.69 0.2ZM387.01-24.3Q383.26-24.3 380.76-21.05 378.26-17.8 378.26-12.23 378.26-6.65 380.64-3.68 383.01-0.7 386.76-0.7 390.51-0.7 393.01-3.95 395.51-7.2 395.51-12.75 395.51-18.3 393.14-21.3 390.76-24.3 387.01-24.3ZM414.56-24.05L414.56-24.05Q411.56-24 408.06-21.85L408.06-21.85 408.06-1 411.81-0.75Q411.81-0.7 411.76 0L411.76 0 401.76 0.05Q401.76-0.4 401.81-0.65L401.81-0.65 404.41-1Q404.71-1 404.81-1.45L404.81-1.45 404.81-23.4Q404.71-23.75 404.51-23.75L404.51-23.75 401.51-23.85 401.56-24.55Q404.26-25 405.66-25 407.06-25 407.56-24.35 408.06-23.7 408.06-22.95L408.06-22.95 408.06-22.35Q412.21-24.95 415.66-25.15L415.66-25.15Q420.41-25.15 422.11-22.45L422.11-22.45Q426.46-24.95 430.31-25.15L430.31-25.15Q433.81-25.15 435.61-23.7L435.61-23.7Q436.46-23.05 437.08-21.68 437.71-20.3 437.71-18.4L437.71-18.4 437.71-1 441.46-0.75Q441.46-0.7 441.41 0L441.41 0 431.41 0.05Q431.41-0.4 431.46-0.65L431.46-0.65 434.06-1Q434.36-1 434.46-1.45L434.46-1.45 434.46-17.15Q434.46-19.15 433.96-20.58 433.46-22 432.86-22.65 432.26-23.3 431.36-23.65L431.36-23.65Q430.36-24.05 429.21-24.05L429.21-24.05Q426.11-24 422.46-21.7L422.46-21.7Q423.11-20.3 423.11-18.4L423.11-18.4 423.11-1 426.86-0.75Q426.86-0.7 426.81 0L426.81 0 416.76 0.05 416.81-0.65 419.41-1Q419.76-1.05 419.86-1.5L419.86-1.5 419.86-17.2Q419.86-19.65 419.21-21.23 418.56-22.8 417.46-23.3L417.46-23.3Q415.96-24.05 414.56-24.05ZM457.01-24.05L457.01-24.05Q454.01-24 450.51-21.85L450.51-21.85 450.51-1 454.26-0.75Q454.26-0.7 454.21 0L454.21 0 444.21 0.05Q444.21-0.4 444.26-0.65L444.26-0.65 446.86-1Q447.16-1 447.26-1.45L447.26-1.45 447.26-23.4Q447.16-23.75 446.96-23.75L446.96-23.75 443.96-23.85 444.01-24.55Q446.71-25 448.11-25 449.51-25 450.01-24.35 450.51-23.7 450.51-22.95L450.51-22.95 450.51-22.35Q454.66-24.95 458.11-25.15L458.11-25.15Q462.86-25.15 464.56-22.45L464.56-22.45Q468.91-24.95 472.76-25.15L472.76-25.15Q476.26-25.15 478.06-23.7L478.06-23.7Q478.91-23.05 479.53-21.68 480.16-20.3 480.16-18.4L480.16-18.4 480.16-1 483.91-0.75Q483.91-0.7 483.86 0L483.86 0 473.86 0.05Q473.86-0.4 473.91-0.65L473.91-0.65 476.51-1Q476.81-1 476.91-1.45L476.91-1.45 476.91-17.15Q476.91-19.15 476.41-20.58 475.91-22 475.31-22.65 474.71-23.3 473.81-23.65L473.81-23.65Q472.81-24.05 471.66-24.05L471.66-24.05Q468.56-24 464.91-21.7L464.91-21.7Q465.56-20.3 465.56-18.4L465.56-18.4 465.56-1 469.31-0.75Q469.31-0.7 469.26 0L469.26 0 459.21 0.05 459.26-0.65 461.86-1Q462.21-1.05 462.31-1.5L462.31-1.5 462.31-17.2Q462.31-19.65 461.66-21.23 461.01-22.8 459.91-23.3L459.91-23.3Q458.41-24.05 457.01-24.05ZM489.55-23.95L486.95-24.2 486.9-24.95 493.65-25 493.65-7.6Q493.65-5.65 494.2-4.23 494.75-2.8 495.43-2.15 496.1-1.5 497-1.15L497-1.15Q498.4-0.65 499.35-0.75L499.35-0.75Q502.4-0.8 506.3-3.9L506.3-3.9 506.3-23.25Q506.1-23.85 505.45-23.95L505.45-23.95 502.85-24.2Q502.8-24.5 502.8-24.95L502.8-24.95 509.55-25 509.55-2.3Q509.65-1.05 510.35-1.05L510.35-1.05 513.35-0.9 513.3-0.15Q510.9 0.25 508.3 0.25L508.3 0.25Q507.7 0.2 507-0.43 506.3-1.05 506.3-2L506.3-2 506.3-2.9Q501.75 0.15 497.7 0.15L497.7 0.15Q496 0.15 493.7-0.7L493.7-0.7Q492.2-1.25 491.3-2.78 490.4-4.3 490.4-6.6L490.4-6.6 490.4-23.2Q490.4-23.45 490.13-23.68 489.85-23.9 489.55-23.95L489.55-23.95ZM527.15 0L517.1 0.05 517.15-0.65 519.75-1Q520.2-1.05 520.2-1.7L520.2-1.7 520.2-23.35Q520.1-23.75 519.9-23.75L519.9-23.75 516.85-23.85 516.9-24.55Q520.05-25 521.15-25L521.15-25Q523.15-25 523.4-23.25L523.4-23.25 523.45-23.25 523.45-22.2Q527.55-25 531.3-25.15L531.3-25.15Q534.95-25.15 536.85-23.7L536.85-23.7Q537.7-23.05 538.38-21.68 539.05-20.3 539.05-18.4L539.05-18.4 539.05-1 542.8-0.75Q542.8-0.7 542.75 0L542.75 0 532.75 0.05Q532.75-0.4 532.8-0.65L532.8-0.65 535.4-1Q535.8-1.05 535.8-1.7L535.8-1.7 535.8-17.15Q535.8-19.15 535.27-20.55 534.75-21.95 534.1-22.6 533.45-23.25 532.5-23.6L532.5-23.6Q531.4-24 530.2-24L530.2-24Q527.2-23.95 523.45-21.65L523.45-21.65 523.45-1 527.2-0.75Q527.2-0.7 527.15 0L527.15 0ZM552.4-22.95L552.4-22.95 552.4-1 556.15-0.75Q556.15-0.7 556.1 0L556.1 0 546.1 0.05Q546.1-0.4 546.15-0.65L546.15-0.65 548.75-1Q549.05-1 549.15-1.45L549.15-1.45 549.15-23.4Q549.05-23.75 548.85-23.75L548.85-23.75 545.85-23.85 545.9-24.55Q548.6-25 550-25 551.4-25 551.9-24.35 552.4-23.7 552.4-22.95ZM550.7-31.7Q549.7-31.7 549.15-32.33 548.6-32.95 548.6-33.98 548.6-35 549.17-35.63 549.75-36.25 550.75-36.25 551.75-36.25 552.37-35.63 553-35 553-33.93 553-32.85 552.35-32.27 551.7-31.7 550.7-31.7ZM569.04-0.95L569.04-0.95 570.99-1.05 571.14-0.55Q571.09-0.55 570.44-0.4L570.44-0.4Q568.94-0.05 567.09-0.05L567.09-0.05Q565.39-0.15 563.99-0.63 562.59-1.1 561.39-2.63 560.19-4.15 560.19-6.55L560.19-6.55 560.19-24.1 557.64-24.1 558.04-24.5 560.24-24.95 560.64-29.75 563.44-30 563.44-25 569.49-25 569.49-24.1 563.44-24.1 563.44-7.4Q563.44-3.6 565.04-2.27 566.64-0.95 569.04-0.95ZM590.44 12.45L579.89 12.5 579.79 11.8 584.44 11.2Q584.79 11.15 584.89 10.5L584.89 10.5 586.54 0 584.89 0 576.54-23.25 576.49-23.3Q576.24-23.9 575.69-24L575.69-24 573.44-24.2Q573.39-24.5 573.39-24.95L573.39-24.95 583.89-25Q583.89-24.95 583.94-24.25L583.94-24.25 580.04-23.95 587.44-1.3 596.74-23.3Q596.89-23.6 596.57-23.8 596.24-24 595.89-24.05L595.89-24.05 593.69-24.2Q593.64-24.5 593.64-24.95L593.64-24.95 602.79-25Q602.79-24.95 602.84-24.25L602.84-24.25 598.39-23.8 587.89 0 585.99 11.45 590.34 11.7Q590.44 12.4 590.44 12.45L590.44 12.45Z" opacity="1" transform="matrix(1,0,0,1,0,0)" fill="#ffffff" class="slogan-text-1" data-fill-palette-color="secondary" id="text-1"></path></svg></g></svg></g></svg></g></svg></g><g transform="matrix(1,0,0,1,36.672,0)"><svg viewBox="0 0 118.656 84.13467869363545" height="84.13467869363545" width="118.656"><g><svg xmlns="http://www.w3.org/2000/svg" xmlns:xlink="http://www.w3.org/1999/xlink" version="1.1" x="0" y="0" viewBox="4.900000095367432 18.148401260375977 89.9729995727539 63.796600341796875" enable-background="new 0 0 100 100" xml:space="preserve" height="84.13467869363545" width="118.656" class="icon-icon-0" data-fill-palette-color="accent" id="icon-0"><path d="M67.475 47.423c2.034 3.991 6.075 6.288 10.267 6.288 1.758 0 3.544-0.405 5.217-1.257 5.665-2.887 7.917-9.819 5.031-15.484-2.034-3.991-6.075-6.289-10.267-6.288-1.758 0-3.544 0.404-5.217 1.257C66.841 34.825 64.589 41.757 67.475 47.423zM71.476 40.163c0.543-1.671 1.704-3.031 3.27-3.829 0.937-0.477 1.939-0.719 2.978-0.72 2.491 0 4.74 1.377 5.87 3.594 1.647 3.232 0.357 7.201-2.875 8.848-0.937 0.477-1.939 0.72-2.977 0.72-2.492 0-4.741-1.377-5.871-3.594C71.074 43.617 70.933 41.834 71.476 40.163zM11.94 66.385L49.009 41.58 38.544 27.867l0.002-0.002c-0.532-0.748-0.853-1.656-0.868-2.642-0.038-2.408 1.749-4.398 4.079-4.708l-0.001-0.011 0.514-0.049c0.011 0 0.02-0.004 0.032-0.004 0 0 0.001 0 0.002 0l23.962-2.297 0.004 0.037c0.121-0.011 0.237-0.04 0.361-0.042 2.594-0.041 4.731 2.028 4.772 4.623 0.039 2.463-1.832 4.491-4.241 4.727l0.004 0.039L51.34 29.054l27.347 35.768c-2.303 0.478-3.831 1.44-5.119 2.264-1.44 0.922-2.391 1.531-4.631 1.531-2.241 0-3.193-0.609-4.634-1.531-1.788-1.145-4.013-2.568-8.178-2.568-4.165 0-6.39 1.425-8.177 2.568-1.44 0.922-2.391 1.531-4.631 1.531-2.239 0-3.19-0.609-4.63-1.531-1.788-1.144-4.012-2.568-8.176-2.568s-6.389 1.425-8.177 2.568c-1.439 0.922-2.39 1.531-4.628 1.531-2.239 0-3.19-0.609-4.63-1.531C12.721 66.858 12.341 66.621 11.94 66.385zM94.873 75.355v6.576c-0.107 0.002-0.2 0.013-0.309 0.013-4.167 0-6.393-1.425-8.181-2.568-1.442-0.924-2.395-1.532-4.637-1.532-2.24 0-3.19 0.609-4.63 1.531-1.788 1.145-4.014 2.57-8.178 2.57-4.166 0-6.391-1.425-8.18-2.57-1.441-0.922-2.392-1.531-4.633-1.531-2.24 0-3.19 0.609-4.63 1.531-1.788 1.145-4.014 2.57-8.178 2.57s-6.389-1.425-8.177-2.57c-1.439-0.922-2.391-1.531-4.629-1.531s-3.19 0.609-4.629 1.531c-1.788 1.145-4.012 2.57-8.176 2.57-4.165 0-6.389-1.425-8.177-2.57C8.09 78.453 7.139 77.844 4.9 77.844v-6.579c4.165 0 6.389 1.425 8.177 2.57 1.439 0.922 2.391 1.531 4.629 1.531s3.189-0.609 4.628-1.531c1.788-1.145 4.012-2.57 8.177-2.57s6.389 1.425 8.177 2.57c1.439 0.922 2.391 1.531 4.629 1.531 2.24 0 3.19-0.609 4.63-1.531 1.788-1.145 4.014-2.57 8.178-2.57 4.165 0 6.391 1.425 8.179 2.57 1.441 0.922 2.392 1.531 4.634 1.531 2.24 0 3.19-0.609 4.63-1.531 1.788-1.145 4.014-2.57 8.178-2.57 4.167 0 6.393 1.425 8.181 2.568 1.442 0.924 2.395 1.532 4.637 1.532C94.674 75.366 94.768 75.358 94.873 75.355z" fill="#ffffff" data-fill-palette-color="accent"></path></svg></g></svg></g><g></g></svg></g></svg></g></svg></g></svg></g><defs></defs></svg><rect width="320" height="360" fill="none" stroke="none" visibility="hidden"></rect></g></svg></g></svg>